<svg xmlns="http://www.w3.org/2000/svg" version="1.1" xmlns:xlink="http://www.w3.org/1999/xlink" xmlns:svgjs="http://svgjs.dev/svgjs" width="1440" height="560" preserveAspectRatio="none" viewBox="0 0 1440 560"><g mask="url(&quot;#SvgjsMask1043&quot;)" fill="none"><rect width="1440" height="560" x="0" y="0" fill="rgba(237, 237, 237, 1)"></rect><path d="M0 26.25C3.74 8.3 10.87 3.43 29.17 0C80.87 -9.69 84.59 0 140 0C210 0 210 0 280 0C350 0 350 0 420 0C471.66 0 473.21 -6.56 523.33 0C543.21 2.6 545.58 4.12 560 18.33C616.6 74.12 640.45 70.15 665.36 140C687.11 200.98 640.74 220.14 653.33 280C658.06 302.5 678.4 304.71 700 304.71C714.59 304.71 721.47 296.63 725.71 280C742.47 214.27 746.94 209.1 742 140C736.93 69.1 680.27 36.29 705.68 0C729.27 -33.71 772.84 0 840 0C894.62 0 900.16 -12.27 949.23 0C970.16 5.23 960.53 35 980 35C1018.34 35 1021.12 10.93 1064.85 0C1091.12 -6.57 1092.43 0 1120 0C1145.28 0 1170.56 -10.9 1170.56 0C1170.56 15.87 1139.1 22.74 1120 53.53C1095.67 92.74 1095.07 94.87 1083.7 140C1066.55 208.11 1059.35 210.7 1062.96 280C1066.64 350.7 1074.38 354 1098.28 420C1102.9 432.75 1109.35 437.5 1120 437.5C1130.06 437.5 1134.81 431.97 1139.69 420C1166.9 353.22 1147.78 340.11 1184.17 280C1207.93 240.76 1230.67 257.48 1260 221.29C1287.39 187.48 1287.51 183.03 1297.61 140C1313.48 72.39 1280.45 43.06 1311.94 0C1331.64 -26.94 1355.97 0 1400 0C1470 0 1505 -35 1540 0C1575 35 1540 70 1540 140C1540 210 1540 210 1540 280C1540 350 1540 350 1540 420C1540 420 1540 420 1540 420C1537.5 490 1570.65 524.35 1535 560C1500.65 594.35 1467.5 560 1400 560C1331.28 560 1330.78 561.22 1262.55 560C1260.78 559.97 1261.23 557.5 1260 557.5C1258.86 557.5 1259.46 559.97 1257.81 560C1189.46 561.22 1188.9 560 1120 560C1050 560 1050 560 980 560C910 560 910 560 840 560C798 560 794.68 570.67 756 560C724.68 551.36 724.35 521.38 700 521.38C683.32 521.38 694.26 554.4 673.95 560C624.26 573.71 616.97 560 560 560C490 560 490 560 420 560C350 560 350 560 280 560C210 560 210 560 140 560C70 560 35 595 0 560C-35 525 0 490 0 420C0 355.18 -33.59 318.59 0 290.37C36.41 259.79 75.07 306.76 140 302.4C152.34 301.57 154.55 290.64 154.55 280C154.55 271.32 150.38 264.05 140 263.77C73.1 261.96 35.59 307.29 0 275.82C-34.41 245.4 0 207.91 0 140C0 83.13 -10.84 78.3 0 26.25" stroke="rgba(66, 129, 164, 0.15)" stroke-width="2"></path><path d="M280 102.77C254.51 109.49 239.3 121.38 239.3 140C239.3 158.62 256.7 162.79 280 177.23C347.05 218.79 372.08 262.8 420 252C454.66 244.19 445.17 194.32 445.17 140C445.17 114.49 442.91 97.5 420 92.34C360.33 78.89 344.86 85.66 280 102.77" stroke="rgba(66, 129, 164, 0.15)" stroke-width="2"></path><path d="M0 70C23.3 28.06 33.88 21.95 77.78 0C103.88 -13.05 108.89 0 140 0C210 0 210 0 280 0C350 0 350 0 420 0C430 0 440 -3.82 440 0C440 5.12 432.28 12.84 420 17.87C352.28 45.61 343.4 30.56 280 65.53C232.7 91.62 236.46 100.11 198.6 140C166.46 173.86 179.73 196.32 140 213.04C80.43 238.11 43.88 246.47 0 223.58C-26.12 209.95 0 181.79 0 140C0 105 -15.59 98.06 0 70" stroke="rgba(66, 129, 164, 0.15)" stroke-width="2"></path><path d="M484.49 140C484.49 96.16 523.1 60 560 60C595.5 60 629.28 96.56 629.28 140C629.28 197.65 595.79 262.18 560 262.18C523.4 262.18 484.49 197.25 484.49 140" stroke="rgba(66, 129, 164, 0.15)" stroke-width="2"></path><path d="M785.75 140C774.58 69.18 736.07 43.61 752.97 0C763.2 -26.39 796.49 0 840 0C875.38 0 882.56 -15.87 910.77 0C952.56 23.51 944.38 40.31 980 78.75C1009.24 110.31 1040.49 105.09 1040.49 140C1040.49 191.39 1018.38 203.8 980 251.36C961.89 273.8 927.5 263.98 927.5 280C927.5 297.39 960.31 293.22 980 318.18C1015.53 363.22 1001.08 375.8 1037.93 420C1071.08 459.76 1079.77 486.11 1120 486.11C1157.99 486.11 1162.59 457.72 1194.38 420C1232.59 374.66 1218.34 360.05 1260 320C1291.15 290.05 1322.51 315.03 1340 280C1367.44 225.03 1342.77 209.78 1349.85 140C1356.97 69.78 1347.9 57.2 1368.39 0C1372.98 -12.8 1384.2 0 1400 0C1470 0 1505 -35 1540 0C1575 35 1540 70 1540 140C1540 210 1540 210 1540 280C1540 308.34 1551.64 312.45 1540 336.67C1517.99 382.45 1487.32 371.6 1472.69 420C1453.57 483.26 1496.44 513.88 1472.5 560C1460.1 583.88 1436.25 560 1400 560C1363.09 560 1357.2 574.4 1326.18 560C1287.2 541.9 1291.86 495 1260 495C1230.34 495 1238.8 543.44 1203.13 560C1168.8 575.94 1161.57 560 1120 560C1074.91 560 1066.46 577.09 1029.83 560C996.46 544.43 1013.45 496.21 980 494.67C918.53 491.84 906.57 559.25 840 551.25C766.57 542.43 760.21 458.48 700 461.03C656.84 462.86 676.64 529.33 633.26 560C606.64 578.82 596.63 560 560 560C504.74 560 449.47 583.18 449.47 560C449.47 526.93 500.45 497.86 560 447.5C583.22 427.86 587.84 434.39 615 420C657.84 397.31 661.88 402.63 700 373.33C752.95 332.63 776.15 337.11 797.14 280C819.03 220.45 796.66 209.18 785.75 140" stroke="rgba(66, 129, 164, 0.15)" stroke-width="2"></path><path d="M200 280C233.89 241.77 238.67 214.47 280 214.47C326.05 214.47 344.03 234.87 374.77 280C414.03 337.63 419.46 349.85 420 420C420.54 489.85 419.05 517.87 376.92 560C349.05 587.87 328.46 560 280 560C210 560 210 560 140 560C70 560 35 595 0 560C-35 525 0 490 0 420C0 420 0 420 0 420C70 396.2 82.7 412.51 140 372.4C182.7 342.51 163.89 320.73 200 280" stroke="rgba(66, 129, 164, 0.15)" stroke-width="2"></path><path d="M0 113.75C54.74 53.11 61.58 52.66 126.39 0C131.58 -4.21 133.19 0 140 0C210 0 210 0 280 0C315 0 350 -6.81 350 0C350 7.34 310.09 6.37 280 28.3C214.05 76.37 217.59 82.87 157.91 140C147.59 149.88 153.38 159.67 140 162.32C74.42 175.34 57.22 180.46 0 171.34C-12.78 169.3 0 155.67 0 140C0 126.88 -8.45 123.11 0 113.75" stroke="rgba(66, 129, 164, 0.15)" stroke-width="2"></path><path d="M523.82 140C523.82 118.99 542.32 101.67 560 101.67C577.01 101.67 593.2 119.19 593.2 140C593.2 167.63 577.15 198.55 560 198.55C542.46 198.55 523.82 167.43 523.82 140" stroke="rgba(66, 129, 164, 0.15)" stroke-width="2"></path><path d="M829.5 140C815.05 69.97 796.16 54.78 800.27 0C801.41 -15.22 820.13 0 840 0C856.15 0 860.74 -10.13 872.31 0C930.74 51.12 925.7 61.67 980 122.5C988.19 131.67 997.28 130.03 997.28 140C997.28 154.69 996.02 166.47 980 171.82C917.38 192.72 894.6 204.04 840 192.5C819.35 188.13 834.91 166.22 829.5 140" stroke="rgba(66, 129, 164, 0.15)" stroke-width="2"></path><path d="M1470 140C1444.06 88.53 1439.15 44.9 1461.6 0C1474.15 -25.1 1525.93 -25.13 1540 0C1565.13 44.87 1540 70 1540 140C1540 147.78 1546.24 155.56 1540 155.56C1511.24 155.56 1483.26 166.31 1470 140" stroke="rgba(66, 129, 164, 0.15)" stroke-width="2"></path><path d="M245.45 280C255.87 260.8 262.15 251.7 280 251.7C299.89 251.7 314.05 257.99 320.92 280C340.3 342.14 340.74 351.62 332.5 420C323.87 491.62 312.21 493.26 287.18 560C285.96 563.26 283.59 560 280 560C210 560 210 560 140 560C70 560 52.16 577.84 0 560C-17.84 553.9 -17.13 523.76 0 512.11C52.87 476.16 74.83 496.61 140 464.8C169.18 450.56 172.64 448.15 188.7 420C225.36 355.75 210.22 344.95 245.45 280" stroke="rgba(66, 129, 164, 0.15)" stroke-width="2"></path><path d="M1249.06 420C1249.06 412.04 1250.59 404.3 1260 403.33C1326.06 396.52 1334.96 396.98 1400 404.44C1407.65 405.32 1404.85 411.82 1405.38 420C1409.85 489.6 1412.51 494.66 1410 560C1409.82 564.66 1405 560 1400 560C1394.91 560 1393.53 563.38 1389.82 560C1323.53 499.63 1324.49 496.64 1260 432.5C1254.11 426.64 1249.06 426.63 1249.06 420" stroke="rgba(66, 129, 164, 0.15)" stroke-width="2"></path><path d="M510.88 560C510.88 545.3 537.94 510 560 510C578.78 510 592.56 543.83 592.56 560C592.56 568.83 576.28 560 560 560C535.44 560 510.88 570.3 510.88 560" stroke="rgba(66, 129, 164, 0.15)" stroke-width="2"></path><path d="M1089.15 560C1089.15 552.87 1104.83 534.72 1120 534.72C1134.47 534.72 1148.44 552.77 1148.44 560C1148.44 565.41 1134.22 560 1120 560C1104.57 560 1089.15 565.51 1089.15 560" stroke="rgba(66, 129, 164, 0.15)" stroke-width="2"></path></g><defs><mask id="SvgjsMask1043"><rect width="1440" height="560" fill="#ffffff"></rect></mask></defs></svg>