<svg xmlns="http://www.w3.org/2000/svg" version="1.1" xmlns:xlink="http://www.w3.org/1999/xlink" xmlns:svgjs="http://svgjs.dev/svgjs" width="1440" height="560" preserveAspectRatio="none" viewBox="0 0 1440 560"><g mask="url(&quot;#SvgjsMask1096&quot;)" fill="none"><rect width="1440" height="560" x="0" y="0" fill="rgba(237, 237, 237, 1)"></rect><path d="M0,533.27C96.212,512.745,144.729,406.825,230.584,358.795C324.835,306.068,458.109,324.61,524.812,239.674C593.527,152.177,596.69,26.557,577.575,-83.043C558.754,-190.953,502.586,-292.087,419.597,-363.583C342.117,-430.332,236.77,-445.582,136.068,-463.405C45.05,-479.514,-44.721,-478.669,-135.61,-461.846C-235.511,-443.355,-344.515,-432.565,-416.718,-361.088C-490.612,-287.937,-524.054,-179.56,-525.781,-75.596C-527.409,22.367,-462.702,103.702,-425.949,194.524C-387.165,290.365,-384.778,408.457,-303.857,472.811C-221.359,538.42,-103.086,555.262,0,533.27" fill="#e1e1e1"></path><path d="M1440 988.171C1518.329 971.454 1549.407 877.4780000000001 1611.591 827 1664.604 783.966 1752.288 777.591 1777.556 714.157 1802.88 650.583 1739.417 585.887 1734.834 517.609 1729.685 440.887 1787.673 358.648 1749.225 292.055 1711.047 225.92899999999997 1623.759 199.474 1547.646 193.392 1477.521 187.789 1419.322 239.88799999999998 1352.005 260.316 1285.505 280.496 1206.142 266.093 1154.57 312.674 1101.603 360.515 1079.2649999999999 436.572 1077.8600000000001 507.932 1076.532 575.39 1125.539 629.8340000000001 1147.067 693.778 1171.829 767.329 1159.116 856.874 1213.856 911.887 1271.129 969.446 1360.589 1005.119 1440 988.171" fill="#f9f9f9"></path></g><defs><mask id="SvgjsMask1096"><rect width="1440" height="560" fill="#ffffff"></rect></mask></defs></svg>