<svg xmlns="http://www.w3.org/2000/svg" version="1.1" xmlns:xlink="http://www.w3.org/1999/xlink" xmlns:svgjs="http://svgjs.dev/svgjs" width="3440" height="1440" preserveAspectRatio="none" viewBox="0 0 3440 1440"><g mask="url(&quot;#SvgjsMask2827&quot;)" fill="none"><rect width="3440" height="1440" x="0" y="0" fill="url(&quot;#SvgjsLinearGradient2828&quot;)"></rect><path d="M2933 1372L2932 623" stroke-width="8" stroke="url(&quot;#SvgjsLinearGradient2829&quot;)" stroke-linecap="round" class="Up"></path><path d="M2781 1381L2780 332" stroke-width="10" stroke="url(&quot;#SvgjsLinearGradient2829&quot;)" stroke-linecap="round" class="Up"></path><path d="M1742 337L1741 1296" stroke-width="8" stroke="url(&quot;#SvgjsLinearGradient2829&quot;)" stroke-linecap="round" class="Up"></path><path d="M1419 1177L1418 1983" stroke-width="6" stroke="url(&quot;#SvgjsLinearGradient2829&quot;)" stroke-linecap="round" class="Up"></path><path d="M660 226L659 737" stroke-width="6" stroke="url(&quot;#SvgjsLinearGradient2830&quot;)" stroke-linecap="round" class="Down"></path><path d="M1302 296L1301 1084" stroke-width="6" stroke="url(&quot;#SvgjsLinearGradient2830&quot;)" stroke-linecap="round" class="Down"></path><path d="M877 160L876 1018" stroke-width="6" stroke="url(&quot;#SvgjsLinearGradient2829&quot;)" stroke-linecap="round" class="Up"></path><path d="M1060 601L1059 1420" stroke-width="8" stroke="url(&quot;#SvgjsLinearGradient2829&quot;)" stroke-linecap="round" class="Up"></path><path d="M63 1129L62 537" stroke-width="8" stroke="url(&quot;#SvgjsLinearGradient2829&quot;)" stroke-linecap="round" class="Up"></path><path d="M2816 262L2815 1155" stroke-width="10" stroke="url(&quot;#SvgjsLinearGradient2830&quot;)" stroke-linecap="round" class="Down"></path><path d="M284 168L283 -350" stroke-width="6" stroke="url(&quot;#SvgjsLinearGradient2830&quot;)" stroke-linecap="round" class="Down"></path><path d="M619 1320L618 2056" stroke-width="8" stroke="url(&quot;#SvgjsLinearGradient2829&quot;)" stroke-linecap="round" class="Up"></path><path d="M1232 1164L1231 1531" stroke-width="8" stroke="url(&quot;#SvgjsLinearGradient2829&quot;)" stroke-linecap="round" class="Up"></path><path d="M1399 1221L1398 225" stroke-width="8" stroke="url(&quot;#SvgjsLinearGradient2830&quot;)" stroke-linecap="round" class="Down"></path><path d="M1078 279L1077 -174" stroke-width="10" stroke="url(&quot;#SvgjsLinearGradient2830&quot;)" stroke-linecap="round" class="Down"></path><path d="M2480 213L2479 -296" stroke-width="6" stroke="url(&quot;#SvgjsLinearGradient2829&quot;)" stroke-linecap="round" class="Up"></path><path d="M2831 1307L2830 1850" stroke-width="6" stroke="url(&quot;#SvgjsLinearGradient2830&quot;)" stroke-linecap="round" class="Down"></path><path d="M323 53L322 441" stroke-width="10" stroke="url(&quot;#SvgjsLinearGradient2830&quot;)" stroke-linecap="round" class="Down"></path><path d="M38 657L37 1441" stroke-width="6" stroke="url(&quot;#SvgjsLinearGradient2830&quot;)" stroke-linecap="round" class="Down"></path><path d="M1792 1247L1791 2178" stroke-width="6" stroke="url(&quot;#SvgjsLinearGradient2829&quot;)" stroke-linecap="round" class="Up"></path><path d="M2400 556L2399 -65" stroke-width="8" stroke="url(&quot;#SvgjsLinearGradient2830&quot;)" stroke-linecap="round" class="Down"></path><path d="M446 1263L445 2216" stroke-width="6" stroke="url(&quot;#SvgjsLinearGradient2829&quot;)" stroke-linecap="round" class="Up"></path><path d="M3109 667L3108 -391" stroke-width="6" stroke="url(&quot;#SvgjsLinearGradient2830&quot;)" stroke-linecap="round" class="Down"></path><path d="M2451 39L2450 -975" stroke-width="6" stroke="url(&quot;#SvgjsLinearGradient2829&quot;)" stroke-linecap="round" class="Up"></path><path d="M1918 822L1917 1891" stroke-width="8" stroke="url(&quot;#SvgjsLinearGradient2830&quot;)" stroke-linecap="round" class="Down"></path><path d="M1787 1321L1786 487" stroke-width="8" stroke="url(&quot;#SvgjsLinearGradient2829&quot;)" stroke-linecap="round" class="Up"></path><path d="M2906 660L2905 1126" stroke-width="6" stroke="url(&quot;#SvgjsLinearGradient2830&quot;)" stroke-linecap="round" class="Down"></path><path d="M2307 1160L2306 2175" stroke-width="6" stroke="url(&quot;#SvgjsLinearGradient2830&quot;)" stroke-linecap="round" class="Down"></path><path d="M2951 274L2950 1226" stroke-width="6" stroke="url(&quot;#SvgjsLinearGradient2829&quot;)" stroke-linecap="round" class="Up"></path><path d="M1165 729L1164 150" stroke-width="8" stroke="url(&quot;#SvgjsLinearGradient2830&quot;)" stroke-linecap="round" class="Down"></path><path d="M1137 670L1136 1282" stroke-width="8" stroke="url(&quot;#SvgjsLinearGradient2829&quot;)" stroke-linecap="round" class="Up"></path><path d="M1789 1347L1788 523" stroke-width="6" stroke="url(&quot;#SvgjsLinearGradient2830&quot;)" stroke-linecap="round" class="Down"></path><path d="M3168 965L3167 27" stroke-width="8" stroke="url(&quot;#SvgjsLinearGradient2830&quot;)" stroke-linecap="round" class="Down"></path><path d="M2348 355L2347 -94" stroke-width="8" stroke="url(&quot;#SvgjsLinearGradient2829&quot;)" stroke-linecap="round" class="Up"></path><path d="M2613 1271L2612 690" stroke-width="6" stroke="url(&quot;#SvgjsLinearGradient2830&quot;)" stroke-linecap="round" class="Down"></path><path d="M2830 879L2829 1911" stroke-width="6" stroke="url(&quot;#SvgjsLinearGradient2829&quot;)" stroke-linecap="round" class="Up"></path><path d="M2005 1130L2004 311" stroke-width="6" stroke="url(&quot;#SvgjsLinearGradient2830&quot;)" stroke-linecap="round" class="Down"></path><path d="M2229 1409L2228 2422" stroke-width="8" stroke="url(&quot;#SvgjsLinearGradient2829&quot;)" stroke-linecap="round" class="Up"></path><path d="M593 533L592 130" stroke-width="8" stroke="url(&quot;#SvgjsLinearGradient2829&quot;)" stroke-linecap="round" class="Up"></path><path d="M1688 31L1687 645" stroke-width="8" stroke="url(&quot;#SvgjsLinearGradient2830&quot;)" stroke-linecap="round" class="Down"></path><path d="M437 1002L436 2048" stroke-width="10" stroke="url(&quot;#SvgjsLinearGradient2830&quot;)" stroke-linecap="round" class="Down"></path><path d="M542 971L541 1768" stroke-width="10" stroke="url(&quot;#SvgjsLinearGradient2829&quot;)" stroke-linecap="round" class="Up"></path><path d="M1061 729L1060 69" stroke-width="8" stroke="url(&quot;#SvgjsLinearGradient2830&quot;)" stroke-linecap="round" class="Down"></path><path d="M1595 1086L1594 349" stroke-width="8" stroke="url(&quot;#SvgjsLinearGradient2830&quot;)" stroke-linecap="round" class="Down"></path><path d="M2628 1132L2627 318" stroke-width="10" stroke="url(&quot;#SvgjsLinearGradient2829&quot;)" stroke-linecap="round" class="Up"></path><path d="M3354 502L3353 915" stroke-width="6" stroke="url(&quot;#SvgjsLinearGradient2829&quot;)" stroke-linecap="round" class="Up"></path><path d="M1367 279L1366 -576" stroke-width="6" stroke="url(&quot;#SvgjsLinearGradient2830&quot;)" stroke-linecap="round" class="Down"></path><path d="M3431 1212L3430 2020" stroke-width="8" stroke="url(&quot;#SvgjsLinearGradient2829&quot;)" stroke-linecap="round" class="Up"></path><path d="M1138 347L1137 1132" stroke-width="10" stroke="url(&quot;#SvgjsLinearGradient2829&quot;)" stroke-linecap="round" class="Up"></path><path d="M1882 62L1881 596" stroke-width="8" stroke="url(&quot;#SvgjsLinearGradient2829&quot;)" stroke-linecap="round" class="Up"></path><path d="M1233 617L1232 173" stroke-width="10" stroke="url(&quot;#SvgjsLinearGradient2830&quot;)" stroke-linecap="round" class="Down"></path><path d="M3176 1219L3175 539" stroke-width="6" stroke="url(&quot;#SvgjsLinearGradient2829&quot;)" stroke-linecap="round" class="Up"></path><path d="M2483 94L2482 -523" stroke-width="6" stroke="url(&quot;#SvgjsLinearGradient2830&quot;)" stroke-linecap="round" class="Down"></path><path d="M1886 187L1885 -300" stroke-width="8" stroke="url(&quot;#SvgjsLinearGradient2830&quot;)" stroke-linecap="round" class="Down"></path><path d="M3417 948L3416 1446" stroke-width="8" stroke="url(&quot;#SvgjsLinearGradient2829&quot;)" stroke-linecap="round" class="Up"></path><path d="M1858 1003L1857 2068" stroke-width="8" stroke="url(&quot;#SvgjsLinearGradient2830&quot;)" stroke-linecap="round" class="Down"></path><path d="M3358 83L3357 -900" stroke-width="6" stroke="url(&quot;#SvgjsLinearGradient2830&quot;)" stroke-linecap="round" class="Down"></path><path d="M1691 261L1690 -111" stroke-width="6" stroke="url(&quot;#SvgjsLinearGradient2829&quot;)" stroke-linecap="round" class="Up"></path><path d="M636 1400L635 633" stroke-width="6" stroke="url(&quot;#SvgjsLinearGradient2829&quot;)" stroke-linecap="round" class="Up"></path><path d="M2195 1017L2194 1663" stroke-width="8" stroke="url(&quot;#SvgjsLinearGradient2830&quot;)" stroke-linecap="round" class="Down"></path><path d="M1583 1215L1582 1953" stroke-width="8" stroke="url(&quot;#SvgjsLinearGradient2830&quot;)" stroke-linecap="round" class="Down"></path><path d="M2659 47L2658 -729" stroke-width="6" stroke="url(&quot;#SvgjsLinearGradient2830&quot;)" stroke-linecap="round" class="Down"></path><path d="M67 118L66 958" stroke-width="6" stroke="url(&quot;#SvgjsLinearGradient2829&quot;)" stroke-linecap="round" class="Up"></path><path d="M2844 937L2843 1494" stroke-width="8" stroke="url(&quot;#SvgjsLinearGradient2829&quot;)" stroke-linecap="round" class="Up"></path><path d="M366 625L365 -307" stroke-width="8" stroke="url(&quot;#SvgjsLinearGradient2829&quot;)" stroke-linecap="round" class="Up"></path><path d="M3106 1076L3105 237" stroke-width="8" stroke="url(&quot;#SvgjsLinearGradient2830&quot;)" stroke-linecap="round" class="Down"></path><path d="M567 472L566 -212" stroke-width="6" stroke="url(&quot;#SvgjsLinearGradient2830&quot;)" stroke-linecap="round" class="Down"></path><path d="M2900 592L2899 -301" stroke-width="10" stroke="url(&quot;#SvgjsLinearGradient2829&quot;)" stroke-linecap="round" class="Up"></path><path d="M1997 192L1996 752" stroke-width="10" stroke="url(&quot;#SvgjsLinearGradient2829&quot;)" stroke-linecap="round" class="Up"></path><path d="M3438 1208L3437 237" stroke-width="6" stroke="url(&quot;#SvgjsLinearGradient2830&quot;)" stroke-linecap="round" class="Down"></path><path d="M1971 590L1970 -202" stroke-width="10" stroke="url(&quot;#SvgjsLinearGradient2830&quot;)" stroke-linecap="round" class="Down"></path><path d="M3022 861L3021 1269" stroke-width="6" stroke="url(&quot;#SvgjsLinearGradient2830&quot;)" stroke-linecap="round" class="Down"></path><path d="M720 313L719 -453" stroke-width="10" stroke="url(&quot;#SvgjsLinearGradient2830&quot;)" stroke-linecap="round" class="Down"></path><path d="M2188 1243L2187 434" stroke-width="6" stroke="url(&quot;#SvgjsLinearGradient2830&quot;)" stroke-linecap="round" class="Down"></path><path d="M1634 579L1633 -321" stroke-width="6" stroke="url(&quot;#SvgjsLinearGradient2829&quot;)" stroke-linecap="round" class="Up"></path><path d="M3174 323L3173 1358" stroke-width="8" stroke="url(&quot;#SvgjsLinearGradient2829&quot;)" stroke-linecap="round" class="Up"></path><path d="M3084 970L3083 1455" stroke-width="6" stroke="url(&quot;#SvgjsLinearGradient2830&quot;)" stroke-linecap="round" class="Down"></path><path d="M171 208L170 1076" stroke-width="6" stroke="url(&quot;#SvgjsLinearGradient2830&quot;)" stroke-linecap="round" class="Down"></path><path d="M3179 579L3178 974" stroke-width="8" stroke="url(&quot;#SvgjsLinearGradient2830&quot;)" stroke-linecap="round" class="Down"></path><path d="M2382 757L2381 322" stroke-width="10" stroke="url(&quot;#SvgjsLinearGradient2829&quot;)" stroke-linecap="round" class="Up"></path><path d="M1955 958L1954 386" stroke-width="10" stroke="url(&quot;#SvgjsLinearGradient2829&quot;)" stroke-linecap="round" class="Up"></path><path d="M3334 668L3333 -73" stroke-width="10" stroke="url(&quot;#SvgjsLinearGradient2830&quot;)" stroke-linecap="round" class="Down"></path><path d="M3297 627L3296 -66" stroke-width="10" stroke="url(&quot;#SvgjsLinearGradient2830&quot;)" stroke-linecap="round" class="Down"></path><path d="M712 1042L711 1458" stroke-width="8" stroke="url(&quot;#SvgjsLinearGradient2829&quot;)" stroke-linecap="round" class="Up"></path><path d="M1253 368L1252 -475" stroke-width="8" stroke="url(&quot;#SvgjsLinearGradient2829&quot;)" stroke-linecap="round" class="Up"></path><path d="M1450 1057L1449 1474" stroke-width="10" stroke="url(&quot;#SvgjsLinearGradient2829&quot;)" stroke-linecap="round" class="Up"></path></g><defs><mask id="SvgjsMask2827"><rect width="3440" height="1440" fill="#ffffff"></rect></mask><linearGradient x1="50%" y1="100%" x2="50%" y2="0%" gradientUnits="userSpaceOnUse" id="SvgjsLinearGradient2828"><stop stop-color="rgba(14, 42, 71, 1)" offset="0"></stop><stop stop-color="rgba(255, 255, 255, 1)" offset="0"></stop></linearGradient><linearGradient x1="0%" y1="100%" x2="0%" y2="0%" id="SvgjsLinearGradient2829"><stop stop-color="rgba(0, 54, 78, 0)" offset="0"></stop><stop stop-color="rgba(0, 54, 78, 1)" offset="1"></stop></linearGradient><linearGradient x1="0%" y1="0%" x2="0%" y2="100%" id="SvgjsLinearGradient2830"><stop stop-color="rgba(0, 54, 78, 0)" offset="0"></stop><stop stop-color="rgba(0, 54, 78, 1)" offset="1"></stop></linearGradient></defs></svg>